<?xml version="1.0" encoding="UTF-8" standalone="no"?>
<!-- Created with Inkscape (http://www.inkscape.org/) -->
<svg
   xmlns:dc="http://purl.org/dc/elements/1.1/"
   xmlns:cc="http://web.resource.org/cc/"
   xmlns:rdf="http://www.w3.org/1999/02/22-rdf-syntax-ns#"
   xmlns:svg="http://www.w3.org/2000/svg"
   xmlns="http://www.w3.org/2000/svg"
   xmlns:xlink="http://www.w3.org/1999/xlink"
   xmlns:sodipodi="http://sodipodi.sourceforge.net/DTD/sodipodi-0.dtd"
   xmlns:inkscape="http://www.inkscape.org/namespaces/inkscape"
   width="35px"
   height="28px"
   id="svg2404"
   sodipodi:version="0.32"
   inkscape:version="0.45.1"
   sodipodi:docbase="/home/joe/workspace/RealTime/assets"
   sodipodi:docname="camera_icon_error.svg"
   inkscape:output_extension="org.inkscape.output.svg.inkscape">
  <defs
     id="defs2406">
    <linearGradient
       id="linearGradient4924">
      <stop
         style="stop-color:#babdb6;stop-opacity:1;"
         offset="0"
         id="stop4926" />
      <stop
         style="stop-color:#555753;stop-opacity:1;"
         offset="1"
         id="stop4928" />
    </linearGradient>
    <linearGradient
       inkscape:collect="always"
       xlink:href="#linearGradient4924"
       id="linearGradient2311"
       gradientUnits="userSpaceOnUse"
       gradientTransform="translate(0,6)"
       x1="314.59253"
       y1="435.23718"
       x2="317.37"
       y2="435.23718" />
    <linearGradient
       inkscape:collect="always"
       id="linearGradient4893">
      <stop
         style="stop-color:#729fcf;stop-opacity:1;"
         offset="0"
         id="stop4895" />
      <stop
         style="stop-color:#eeeeec;stop-opacity:1"
         offset="1"
         id="stop4897" />
    </linearGradient>
    <linearGradient
       inkscape:collect="always"
       xlink:href="#linearGradient4893"
       id="linearGradient2309"
       gradientUnits="userSpaceOnUse"
       x1="289.2973"
       y1="429.1257"
       x2="289.2973"
       y2="420.68436" />
    <linearGradient
       id="linearGradient2212">
      <stop
         style="stop-color:#d3d7cf;stop-opacity:1;"
         offset="0"
         id="stop2214" />
      <stop
         style="stop-color:#888a85;stop-opacity:1"
         offset="1"
         id="stop2216" />
    </linearGradient>
    <linearGradient
       inkscape:collect="always"
       xlink:href="#linearGradient2212"
       id="linearGradient2307"
       gradientUnits="userSpaceOnUse"
       x1="293.88568"
       y1="423.42651"
       x2="293.88568"
       y2="428.82974" />
    <linearGradient
       inkscape:collect="always"
       id="linearGradient2194">
      <stop
         style="stop-color:#babdb6;stop-opacity:1"
         offset="0"
         id="stop2196" />
      <stop
         style="stop-color:#eeeeec;stop-opacity:1"
         offset="1"
         id="stop2198" />
    </linearGradient>
    <linearGradient
       inkscape:collect="always"
       xlink:href="#linearGradient2194"
       id="linearGradient2305"
       gradientUnits="userSpaceOnUse"
       gradientTransform="matrix(1,0,0,1.5172414,0,-223.86853)"
       x1="329.03125"
       y1="434.63358"
       x2="329.03125"
       y2="433.0625" />
    <linearGradient
       id="linearGradient2204">
      <stop
         id="stop2206"
         offset="0"
         style="stop-color:#babdb6;stop-opacity:1;" />
      <stop
         style="stop-color:#7b7f76;stop-opacity:1;"
         offset="0.81097561"
         id="stop2208" />
      <stop
         id="stop2210"
         offset="1"
         style="stop-color:#50524e;stop-opacity:1;" />
    </linearGradient>
    <linearGradient
       inkscape:collect="always"
       xlink:href="#linearGradient2204"
       id="linearGradient2303"
       gradientUnits="userSpaceOnUse"
       gradientTransform="translate(0,6)"
       x1="317.25"
       y1="431.98703"
       x2="317.25"
       y2="444.69302" />
  </defs>
  <sodipodi:namedview
     id="base"
     pagecolor="#ffffff"
     bordercolor="#666666"
     borderopacity="1.0"
     inkscape:pageopacity="0.0"
     inkscape:pageshadow="2"
     inkscape:zoom="1"
     inkscape:cx="24"
     inkscape:cy="16.937499"
     inkscape:current-layer="g3955"
     showgrid="true"
     inkscape:grid-bbox="true"
     inkscape:document-units="px"
     inkscape:window-width="1082"
     inkscape:window-height="825"
     inkscape:window-x="0"
     inkscape:window-y="49"
     inkscape:grid-points="true" />
  <metadata
     id="metadata2409">
    <rdf:RDF>
      <cc:Work
         rdf:about="">
        <dc:format>image/svg+xml</dc:format>
        <dc:type
           rdf:resource="http://purl.org/dc/dcmitype/StillImage" />
      </cc:Work>
    </rdf:RDF>
  </metadata>
  <g
     id="layer1"
     inkscape:label="Layer 1"
     inkscape:groupmode="layer">
    <g
       id="g3955"
       transform="matrix(1.29,0,0,1.29,-401.01876,-554.58942)">
      <path
         id="path3957"
         d="M 317,430.625 C 315.76648,430.625 314.77744,431.54948 314.65625,432.75 C 313.924,433.0049 313.40625,433.67874 313.40625,434.5 L 313.40625,448.8125 C 313.40625,449.85125 314.2425,450.68749 315.28125,450.6875 L 335.25,450.6875 C 336.28875,450.6875 337.125,449.85124 337.125,448.8125 L 337.125,434.5 C 337.125,433.46125 336.28875,432.625 335.25,432.625 L 322.4375,432.625 C 322.26314,431.48348 321.31677,430.625 320.125,430.625 L 317,430.625 z "
         style="opacity:1;fill:url(#linearGradient2303);fill-opacity:1;stroke:none;stroke-width:1;stroke-linecap:round;stroke-linejoin:round;stroke-miterlimit:2.41420007;stroke-dasharray:none;stroke-dashoffset:0;stroke-opacity:1" />
      <path
         id="path3959"
         d="M 321.9375,432.6875 C 321.88099,434.42969 322.77845,435.5625 323.84375,435.5625 L 336.625,435.5625 L 336.625,434.5 C 336.625,433.7296 336.0204,433.125 335.25,433.125 L 322.4375,433.125 C 322.18404,433.12696 321.9692,432.93898 321.9375,432.6875 z "
         style="opacity:1;fill:url(#linearGradient2305);fill-opacity:1;stroke:none;stroke-width:1;stroke-linecap:round;stroke-linejoin:round;stroke-miterlimit:2.41420007;stroke-dasharray:none;stroke-dashoffset:0;stroke-opacity:1" />
      <path
         id="path3961"
         d="M 317,430.125 C 315.61896,430.125 314.55048,431.13592 314.28125,432.4375 C 313.49331,432.81853 312.90625,433.56544 312.90625,434.5 L 312.90625,448.8125 C 312.90625,450.1196 313.97415,451.18749 315.28125,451.1875 L 335.25,451.1875 C 336.5571,451.1875 337.625,450.11959 337.625,448.8125 L 337.625,434.5 C 337.625,433.1929 336.5571,432.125 335.25,432.125 L 322.6875,432.125 C 322.30251,431.00837 321.37524,430.125 320.125,430.125 L 317,430.125 z M 317,431.125 L 320.125,431.125 C 321.07666,431.125 321.79827,431.77594 321.9375,432.6875 C 321.9692,432.93898 322.18404,433.12696 322.4375,433.125 L 335.25,433.125 C 336.0204,433.125 336.625,433.7296 336.625,434.5 L 336.625,448.8125 C 336.625,449.58289 336.0204,450.1875 335.25,450.1875 L 315.28125,450.1875 C 314.51085,450.18749 313.90625,449.5829 313.90625,448.8125 L 313.90625,434.5 C 313.90625,433.88888 314.26952,433.40776 314.8125,433.21875 C 314.99561,433.16061 315.12922,433.00271 315.15625,432.8125 C 315.25271,431.85693 316.0163,431.125 317,431.125 z "
         style="opacity:1;fill:#555753;fill-opacity:1;stroke:none;stroke-width:1;stroke-linecap:round;stroke-linejoin:round;stroke-miterlimit:2.41420007;stroke-dasharray:none;stroke-dashoffset:0;stroke-opacity:1" />
      <path
         transform="translate(39.25,18.25)"
         d="M 295 425.11218 A 6.25 6.25 0 1 1  282.5,425.11218 A 6.25 6.25 0 1 1  295 425.11218 z"
         sodipodi:ry="6.25"
         sodipodi:rx="6.25"
         sodipodi:cy="425.11218"
         sodipodi:cx="288.75"
         id="path3963"
         style="opacity:1;fill:url(#linearGradient2307);fill-opacity:1;stroke:#555753;stroke-width:1;stroke-linecap:round;stroke-linejoin:round;stroke-miterlimit:2.41420007;stroke-dasharray:none;stroke-dashoffset:0;stroke-opacity:1"
         sodipodi:type="arc" />
      <path
         sodipodi:type="arc"
         style="opacity:1;fill:url(#linearGradient2309);fill-opacity:1;stroke:#555753;stroke-width:1.45945942;stroke-linecap:round;stroke-linejoin:round;stroke-miterlimit:2.41420007;stroke-dasharray:none;stroke-dashoffset:0;stroke-opacity:1"
         id="path3965"
         sodipodi:cx="288.75"
         sodipodi:cy="425.11218"
         sodipodi:rx="6.25"
         sodipodi:ry="6.25"
         d="M 295 425.11218 A 6.25 6.25 0 1 1  282.5,425.11218 A 6.25 6.25 0 1 1  295 425.11218 z"
         transform="matrix(0.6672762,0,0,0.6672762,135.32401,159.69494)" />
      <path
         sodipodi:nodetypes="ccccccsc"
         id="path3967"
         d="M 312.49869,435.55972 L 316.15693,435.55972 C 317.19568,435.55972 318.03193,436.39597 318.03193,437.43472 C 317.30828,440.33724 317.42437,443.23976 318.03193,446.14228 C 318.03193,447.18103 317.19568,448.01728 316.15693,448.01728 L 312.49869,448.01728 C 311.12496,446.60962 312.44286,444.10355 312.42317,441.61171 C 312.40472,439.27669 310.95268,436.95418 312.49869,435.55972 z "
         style="fill:url(#linearGradient2311);fill-opacity:1;stroke:none;stroke-width:1;stroke-linecap:round;stroke-linejoin:round;stroke-miterlimit:2.41420007;stroke-dashoffset:0;stroke-opacity:1" />
      <path
         sodipodi:nodetypes="ccccccc"
         id="path3971"
         d="M 311.97189,438.0625 C 312.06421,438.79012 312.29832,439.59269 312.46034,440.4375 L 313.43725,440.4375 C 314.26896,440.4375 314.9375,439.96442 314.9375,439.375 L 314.9375,439.125 C 314.9375,438.53558 314.26896,438.0625 313.43725,438.0625 L 311.97189,438.0625 z "
         style="opacity:1;fill:#888a85;fill-opacity:1;stroke:none;stroke-width:1;stroke-linecap:round;stroke-linejoin:round;stroke-miterlimit:2.41420007;stroke-dasharray:none;stroke-dashoffset:0;stroke-opacity:1" />
      <path
         sodipodi:nodetypes="ccccccc"
         id="path3973"
         d="M 312.49523,442.9375 C 312.35909,443.77655 312.15504,444.57929 312.04167,445.3125 L 313.43725,445.3125 C 314.26896,445.3125 314.9375,444.83942 314.9375,444.25 L 314.9375,444 C 314.9375,443.41058 314.26896,442.9375 313.43725,442.9375 L 312.49523,442.9375 z "
         style="opacity:1;fill:#888a85;fill-opacity:1;stroke:none;stroke-width:1;stroke-linecap:round;stroke-linejoin:round;stroke-miterlimit:2.41420007;stroke-dasharray:none;stroke-dashoffset:0;stroke-opacity:1" />
      <path
         sodipodi:nodetypes="csssccsscsccccccssssccsc"
         id="path3975"
         d="M 312.40625,435.0625 C 312.31273,435.07956 312.22601,435.12292 312.15625,435.1875 C 310.55753,436.72292 311.83456,439.26504 311.84375,441.78125 C 311.85294,444.29746 310.59819,446.83614 312.15625,448.375 C 312.24601,448.47001 312.3694,448.52609 312.5,448.53125 L 316.15625,448.53125 C 317.46335,448.53125 318.53126,447.46336 318.53125,446.15625 C 318.53648,446.11475 318.53648,446.07275 318.53125,446.03125 C 317.93477,443.18166 317.82957,440.37692 318.53125,437.5625 C 318.53648,437.521 318.53648,437.479 318.53125,437.4375 C 318.53125,436.1304 317.46336,435.0625 316.15625,435.0625 L 312.5,435.0625 C 312.46882,435.05956 312.43743,435.05956 312.40625,435.0625 L 312.40625,435.0625 z M 312.75,436.0625 L 316.15625,436.0625 C 316.91609,436.0625 317.51497,436.65099 317.53125,437.40625 C 317.53148,437.41675 317.53125,437.42693 317.53125,437.4375 C 316.82701,440.35566 316.93763,443.27165 317.53125,446.15625 C 317.53335,446.16646 317.52914,446.17729 317.53125,446.1875 C 317.51498,446.94277 316.91608,447.53125 316.15625,447.53125 L 312.78125,447.53125 C 311.56836,446.2596 312.85202,444.04489 312.84375,441.78125 C 312.83554,439.53415 311.52738,437.33318 312.75,436.0625 z "
         style="fill:#555753;fill-opacity:1;stroke:none;stroke-width:1;stroke-linecap:round;stroke-linejoin:round;stroke-miterlimit:2.41420007;stroke-dashoffset:0;stroke-opacity:1" />
      <text
         xml:space="preserve"
         style="font-size:9.30232525px;font-style:normal;font-weight:normal;fill:#ff0000;fill-opacity:1;stroke:none;stroke-width:1px;stroke-linecap:butt;stroke-linejoin:miter;stroke-opacity:1;font-family:Bitstream Vera Sans"
         x="326.13702"
         y="447.0307"
         id="text2190"><tspan
           sodipodi:role="line"
           id="tspan2192"
           x="326.13702"
           y="447.0307">!</tspan></text>
      <path
         style="fill:#ffff00;fill-rule:evenodd;stroke:#ff0000;stroke-width:1.00775194;stroke-linecap:butt;stroke-linejoin:miter;stroke-opacity:1;stroke-miterlimit:4;stroke-dasharray:none"
         d="M 327.92152,433.79025 L 320.16959,449.29413 L 335.67346,449.29413 L 327.92152,433.79025 z "
         id="path2196" />
      <text
         xml:space="preserve"
         style="font-size:13.95348835px;font-style:normal;font-variant:normal;font-weight:bold;font-stretch:normal;text-align:start;line-height:125%;writing-mode:lr-tb;text-anchor:start;fill:#000000;fill-opacity:1;stroke:none;stroke-width:1px;stroke-linecap:butt;stroke-linejoin:miter;stroke-opacity:1;font-family:Arial"
         x="325.59595"
         y="448.13135"
         id="text5108"
         sodipodi:linespacing="125%"><tspan
           sodipodi:role="line"
           id="tspan5110"
           x="325.59595"
           y="448.13135">!</tspan></text>
    </g>
  </g>
</svg>
